<svg xmlns="http://www.w3.org/2000/svg" viewBox="-658 659.3 53.6 74.4" width="53.6" height="90">
  <path d="M-606.5 688.1H-649V681c0-9.8 8-17.7 17.7-17.7 9.8 0 17.7 8 17.7 17.7 0 1.1.9 2 2 2s2-.9 2-2c0-12-9.7-21.7-21.7-21.7S-653 669-653 681v7.1h-3c-1.1 0-2 .9-2 2v41.6c0 1.1.9 2 2 2h49.6c1.1 0 2-.9 2-2v-41.6c-.1-1.1-1-2-2.1-2zm-2 41.5h-45.6v-37.5h45.6z"/>
  <path d="M-634.4 714v6.2c0 1.7 1.4 3.1 3.1 3.1 1.7 0 3.1-1.4 3.1-3.1V714c3.1-1.2 5.3-4.2 5.3-7.7 0-4.6-3.7-8.3-8.3-8.3-4.6 0-8.3 3.7-8.3 8.3-.1 3.5 2.1 6.5 5.1 7.7zm3.1-12c2.4 0 4.3 1.9 4.3 4.3s-1.9 4.3-4.3 4.3-4.3-1.9-4.3-4.3 1.9-4.3 4.3-4.3z"/>
</svg>
