<svg xmlns="http://www.w3.org/2000/svg" width="75.7" height="90">
  <path d="M29.7 32.2h-7.8-.1c-.1 0-.1 0-.2.1-.1 0-.1 0-.2.1-.1 0-.1.1-.2.1s-.1.1-.2.1l-.1.1c-.1 0-.1.1-.2.2l-.1.1c0 .1-.1.1-.1.2s-.1.1-.1.2-.1.1-.1.2 0 .1-.1.2V34.7c0 .1 0 .1.1.2 0 .1 0 .1.1.2 0 .1.1.1.1.2s.1.1.1.2l.1.1c0 .1.1.1.1.2l15.4 14.5c.4.4.9.5 1.4.5.5 0 1-.2 1.4-.5l15.4-14.5c.8-.8.8-2 .1-2.8-.4-.5-1-.7-1.6-.6h-7.6v-2.9c0-1.1-.9-2-2-2s-2 .9-2 2v4.9c0 1.1.9 2 2 2H48l-10.4 9.8-10.4-9.8h4.4c1.1 0 2-.9 2-2v-4.9c0-1.1-.9-2-2-2s-2 .9-2 2v2.7zM29.7 23.3c0 1.1.9 2 2 2s2-.9 2-2v-3.2c0-1.1-.9-2-2-2s-2 .9-2 2zM41.3 23.3c0 1.1.9 2 2 2s2-.9 2-2v-3.2c0-1.1-.9-2-2-2s-2 .9-2 2zM29.7 12.8c0 1.1.9 2 2 2s2-.9 2-2v-1.4c0-1.1-.9-2-2-2s-2 .9-2 2zM41.3 12.8c0 1.1.9 2 2 2s2-.9 2-2v-1.4c0-1.1-.9-2-2-2s-2 .9-2 2zM31.7 4.1c1.1 0 2-.9 2-2V2c0-1.1-.9-2-2-2s-2 .9-2 2v.1c0 1.1.9 2 2 2zM43.3 4.1c1.1 0 2-.9 2-2V2c0-1.1-.9-2-2-2s-2 .9-2 2v.1c0 1.1.9 2 2 2z"/>
  <path d="M75.7 51.4V37.2c0-9.4-9.2-17.7-23.4-21.2-1.1-.3-2.2.4-2.4 1.5-.3 1.1.4 2.2 1.5 2.4 12.4 3 20.4 9.8 20.4 17.3 0 10.2-15.5 18.9-33.9 18.9S4 47.5 4 37.2c0-7.3 7.8-14.1 19.9-17.2 1.1-.3 1.7-1.4 1.4-2.4-.3-1.1-1.4-1.7-2.4-1.4C9 19.8 0 28 0 37.2v14.2c0 12.8 16.6 22.9 37.9 22.9 21.3 0 37.8-10.1 37.8-22.9zm-4-3.8v3.9c0 2.9-1.2 5.7-3.5 8.1V51c1.3-1.1 2.5-2.2 3.5-3.4zm-60.5 6c1.4.8 2.9 1.6 4.6 2.3v9.7c-1.7-.8-3.2-1.7-4.6-2.7zm8.6 3.8c1.8.6 3.6 1 5.5 1.4v10.1c-1.9-.4-3.8-1-5.5-1.6zm9.5 2.1c2.1.3 4.3.5 6.5.5v10.2c-2.2-.1-4.4-.3-6.5-.6zm10.5.5c2.2-.1 4.3-.2 6.3-.5v10.2c-2 .3-4.2.5-6.3.6zm10.3-1.2c1.9-.4 3.8-.9 5.5-1.4v9.9c-1.7.6-3.6 1.1-5.5 1.6zm9.6-2.8c1.6-.7 3.2-1.4 4.6-2.3v9.4c-1.4 1-2.9 1.8-4.6 2.6zM3.9 51.4v-3.9c1 1.2 2.1 2.3 3.3 3.3v8.6c-2.1-2.4-3.3-5.1-3.3-8z"/>
</svg>
