<svg xmlns="http://www.w3.org/2000/svg" width="92.6" height="90">
  <switch transform="translate(-24.6 -24.4)">
    <g>
      <path d="M90.1 99v13.4h6.2V99c0-1.4 1.1-2.5 2.5-2.5h13.4v-6.2H98.8c-1.4 0-2.5-1.1-2.5-2.5V74.4h-6.2v13.4c0 1.4-1.1 2.5-2.5 2.5H74.2v6.2h13.4c1.4 0 2.5 1.1 2.5 2.5zM59.3 67.5c7.6 0 15.1-10.4 15.1-21 0-7.8-2.6-17.1-15.1-17.1s-15.1 9.3-15.1 17.1c0 10.2 7.7 21 15.1 21z" fill="none"/>
      <path d="M59.3 72.5c10.5 0 20.1-12.4 20.1-26 0-14-7.3-22.1-20.1-22.1s-20.1 8-20.1 22.1c0 13.1 9.9 26 20.1 26zm0-43.1c12.5 0 15.1 9.3 15.1 17.1 0 10.6-7.5 21-15.1 21-7.3 0-15.1-10.8-15.1-21 0-7.8 2.6-17.1 15.1-17.1z"/>
      <path d="M24.6 104.6v.5c0 .1 0 .2.1.2 0 .1 0 .2.1.2 0 .1.1.1.1.2s.1.1.1.2.1.1.1.2l.2.2.2.2c.1 0 .1.1.2.1.1.1.2.1.3.2h.1c11 4.7 22.1 7.1 33.2 7.1 6.8 0 13.6-.9 20.4-2.7 1.3-.4 2.1-1.7 1.8-3.1-.4-1.3-1.7-2.1-3.1-1.8-16.2 4.3-32.6 3.1-48.8-3.6.4-9.8 4.5-21.7 15-27.1 2.7 1.4 9.5 4.5 14.7 4.5 5.1 0 11.7-3 14.5-4.4 1 .7 2.6 1.9 5 3.9 1.1.9 2.6.7 3.5-.3.9-1.1.7-2.6-.3-3.5-3.1-2.6-5.3-4.3-6.7-5.1-.8-.5-1.7-.5-2.5 0-2.3 1.3-9.1 4.5-13.5 4.5s-11.2-3.3-13.5-4.5c-.7-.4-1.5-.4-2.3-.1-13.9 6.3-18.9 21.7-18.9 34z"/>
      <path d="M69.2 87.8V99c0 1.4 1.1 2.5 2.5 2.5h13.4v13.4c0 1.4 1.1 2.5 2.5 2.5h11.2c1.4 0 2.5-1.1 2.5-2.5v-13.4h13.4c1.4 0 2.5-1.1 2.5-2.5V87.8c0-1.4-1.1-2.5-2.5-2.5h-13.4V71.9c0-1.4-1.1-2.5-2.5-2.5H87.6c-1.4 0-2.5 1.1-2.5 2.5v13.4H71.7c-1.4 0-2.5 1.1-2.5 2.5zm5 2.5h13.4c1.4 0 2.5-1.1 2.5-2.5V74.4h6.2v13.4c0 1.4 1.1 2.5 2.5 2.5h13.4v6.2H98.8c-1.4 0-2.5 1.1-2.5 2.5v13.4h-6.2V99c0-1.4-1.1-2.5-2.5-2.5H74.2z"/>
    </g>
  </switch>
</svg>
